<svg width="242" height="124" viewBox="0 0 242 124" fill="none" xmlns="http://www.w3.org/2000/svg">
<path d="M40.7275 18.0166C40.7275 18.0166 40.8557 18.3248 41.0511 18.8557C40.9977 18.5551 40.9383 18.2571 40.8686 17.9583C40.8222 17.976 40.7765 17.9963 40.7275 18.0166" fill="#010101"/>
<path d="M40.7275 18.0166C40.7275 18.0166 40.8557 18.3248 41.0511 18.8557C40.9977 18.5551 40.9383 18.2571 40.8686 17.9583C40.8222 17.976 40.7765 17.9963 40.7275 18.0166" fill="#010101"/>
<path d="M40.7275 18.0166C40.7275 18.0166 40.8557 18.3248 41.0511 18.8557C40.9977 18.5551 40.9383 18.2571 40.8686 17.9583C40.8222 17.976 40.7765 17.9963 40.7275 18.0166" fill="#010101"/>
<path d="M202.94 47.4603H167.746C168.49 47.7244 169.165 48.1469 169.724 48.6977C170.278 49.2463 170.744 49.8754 171.104 50.5632C171.471 51.2605 171.749 51.9998 171.933 52.7642C172.069 53.3244 172.156 53.8953 172.192 54.4703V74.0855C172.049 75.4727 171.598 76.8119 170.871 78.0078C170.491 78.6335 170.035 79.2105 169.512 79.7258C168.993 80.2396 168.398 80.6716 167.746 81.0064H188.617C187.797 80.8141 187.038 80.4258 186.406 79.8758C185.82 79.3557 185.331 78.738 184.961 78.051C184.585 77.3466 184.32 76.5894 184.176 75.8059C184.02 75.0045 183.941 74.1904 183.94 73.3743V65.828C185.131 65.828 186.25 65.8624 187.298 65.9314C188.271 65.9854 189.228 66.2056 190.125 66.5823C190.976 66.957 191.72 67.5331 192.292 68.2595C192.987 69.2072 193.46 70.2958 193.675 71.4462V56.1C193.234 57.1718 192.647 58.1796 191.931 59.096C191.388 59.77 190.698 60.3148 189.912 60.6903C189.102 61.054 188.231 61.2677 187.342 61.3208C186.377 61.3886 185.243 61.4231 183.94 61.4242V52.2005L190.317 52.2404C191.308 52.2404 192.334 52.2819 193.398 52.3649C194.445 52.4471 195.483 52.6163 196.501 52.8709C197.505 53.1215 198.475 53.4867 199.392 53.9592C200.307 54.4316 201.122 55.0722 201.793 55.8466C202.042 56.13 202.27 56.4311 202.474 56.7475C202.684 57.0636 202.841 57.4107 202.94 57.7756V47.4603Z" fill="#61B510"/>
<path d="M206.298 47.4603V60.1665C206.481 58.839 207.024 57.585 207.87 56.5374C208.682 55.5526 209.687 54.7402 210.826 54.149C211.996 53.5396 213.26 53.1217 214.566 52.9116C215.878 52.6899 217.213 52.6338 218.539 52.7447V74.5127C218.485 75.0664 218.371 75.6128 218.198 76.1425C217.951 76.9103 217.578 77.6327 217.093 78.2808C216.611 78.9247 216.031 79.4909 215.374 79.9589C214.699 80.4376 213.942 80.7925 213.139 81.0064H235.456C234.565 80.8572 233.721 80.5055 232.991 79.9792C232.287 79.4688 231.682 78.8368 231.206 78.1138C230.722 77.3838 230.356 76.5841 230.121 75.7433C229.882 74.9039 229.76 74.0362 229.759 73.1642V52.7447H230.865C231.791 52.7653 232.715 52.8557 233.627 53.015C234.799 53.2101 235.941 53.5483 237.028 54.0219C238.202 54.5424 239.257 55.2913 240.13 56.2238C241.111 57.2929 241.76 58.6176 242 60.0402V47.4603H206.298Z" fill="#61B510"/>
<path d="M146.751 79.2871C146.212 79.7715 145.603 80.1742 144.945 80.4821C144.349 80.7474 143.966 80.922 143.795 81.006H167.813C167.418 80.9231 167.037 80.7823 166.685 80.5881C166.34 80.3965 166.007 80.1863 165.686 79.9584C164.835 79.3656 164.064 78.6682 163.391 77.8828C162.759 77.1279 162.204 76.3135 161.734 75.4513C161.234 74.532 160.801 73.579 160.438 72.5994L158.693 67.4871L156.336 60.5857L151.788 47.4594H131.852C132.483 47.6141 133.09 47.8474 133.661 48.1535C134.17 48.4508 134.634 48.8172 135.04 49.2417C135.517 49.7432 135.854 50.3578 136.018 51.0257C136.159 51.6326 136.159 52.2631 136.018 52.87C135.886 53.4847 135.701 54.0874 135.466 54.6718C134.899 56.127 134.467 57.2802 134.168 58.1313C134.079 58.3899 133.984 58.6297 133.881 58.8679L130.279 68.0491C130.083 68.5805 129.785 69.3633 129.387 70.3976C128.99 71.4324 128.544 72.5087 128.048 73.6266C127.553 74.7453 127.028 75.7937 126.475 76.7718C126.075 77.548 125.552 78.2557 124.924 78.8677C124.447 79.2558 123.95 79.6199 123.436 79.9584C122.928 80.2924 122.523 80.5449 122.225 80.7119C122.057 80.8003 121.894 80.8985 121.737 81.006H139.673C138.401 80.7433 137.264 80.045 136.464 79.0347C135.695 78 135.272 76.7546 135.253 75.4717C135.272 75.0742 135.336 74.68 135.446 74.297C135.571 73.7936 135.728 73.2851 135.913 72.7664C136.095 72.2494 136.287 71.7533 136.487 71.2781C136.682 70.8027 136.826 70.4374 136.911 70.1874H146.984C147.068 70.4128 147.182 70.7264 147.325 71.1315C147.466 71.5366 147.615 71.9491 147.771 72.3689C147.926 72.7884 148.069 73.1935 148.197 73.5859C148.323 73.9758 148.416 74.269 148.472 74.464C148.743 75.4098 148.668 76.4194 148.259 77.3159C147.89 78.0629 147.378 78.7324 146.751 79.2872L146.751 79.2871ZM138.016 66.204L141.587 55.3024L145.327 66.204H138.016Z" fill="#61B510"/>
<path d="M110.965 64.2772C111.831 63.8853 112.63 63.3636 113.334 62.7305L113.555 62.5126C113.883 62.1933 114.188 61.8518 114.468 61.4905C114.504 61.4422 114.546 61.3965 114.582 61.3464C115.998 59.6572 116.68 57.4834 116.477 55.3001H116.474C116.418 54.3463 116.169 53.4132 115.743 52.555C115.484 52.0331 115.179 51.535 114.83 51.0667C114.263 50.283 113.521 49.6374 112.663 49.1793C111.777 48.7013 110.835 48.3349 109.857 48.0885C108.86 47.8368 107.844 47.669 106.819 47.5868C105.783 47.5012 104.826 47.4591 103.949 47.4605H80.5723C81.3633 47.6571 82.1069 48.0062 82.7604 48.4877C83.3971 49.0251 83.9112 49.6895 84.2689 50.437C84.7726 51.5282 85.0198 52.7175 84.9923 53.9161C85.0206 54.645 85.0352 55.3866 85.0361 56.1409V73.3314C85.0312 74.0877 84.9381 74.8411 84.7586 75.5765C84.5766 76.3385 84.3056 77.0771 83.9511 77.7775C83.6003 78.4722 83.1414 79.1085 82.5912 79.6632C82.0366 80.2254 81.3808 80.6809 80.6574 81.0066H100.848C100.405 80.8476 99.9719 80.6651 99.5495 80.4599C99.0515 80.2155 98.5989 79.8897 98.2111 79.4963C97.7386 79.0065 97.3574 78.4385 97.0848 77.8181C96.7162 76.9511 96.4942 76.0304 96.4276 75.0925C96.2835 73.5591 96.2261 72.019 96.2558 70.4794C96.2841 68.9157 96.2987 67.3788 96.2996 65.8688H97.6595C98.2849 65.8688 98.8911 65.8663 99.4782 65.8612C104.803 78.1292 106.655 81.0066 111.955 81.0066H123.616C119.625 81.0066 114.522 71.7854 110.965 64.2772L110.965 64.2772ZM95.5762 61.2981V52.4084C96.6251 52.4084 97.6646 52.3881 98.7007 52.3448C99.6385 52.2931 100.579 52.3921 101.484 52.6381C102.28 52.8593 102.982 53.3303 103.482 53.9797C104.061 54.8866 104.329 55.953 104.246 57.0214C104.326 58.0259 104.031 59.0245 103.418 59.8302C102.863 60.447 102.129 60.8793 101.315 61.0676C100.397 61.2834 99.4538 61.3755 98.5108 61.3413C97.4894 61.3108 96.5126 61.2981 95.5762 61.2981" fill="#61B510"/>
<path d="M87.1969 8.49059C85.7005 9.16466 84.4197 10.2299 83.4932 11.5709C82.5667 12.912 82.0299 14.4776 81.941 16.0981L81.9333 16.1006C80.7121 15.2486 79.2947 14.7104 77.8095 14.5349C76.3243 14.3594 74.8182 14.5521 73.4275 15.0955C73.541 15.4666 73.6787 15.8302 73.8399 16.1837C74.3673 17.3289 75.1358 18.3502 76.0943 19.1797C77.0528 20.0091 78.1794 20.6277 79.399 20.9943C78.0452 23.0659 76.2607 24.8302 74.1638 26.1702C73.2514 26.7487 72.2055 27.0898 71.1235 27.1618C69.7608 27.3212 68.381 27.0733 67.1627 26.4503C65.9445 25.8273 64.9438 24.8578 64.2904 23.6674C63.4678 25.1195 62.1311 26.2209 60.5362 26.7607C58.9414 27.3004 57.2008 27.2404 55.648 26.5923C55.2347 26.3549 54.8275 26.1041 54.4375 25.8337C51.1063 23.548 48.6793 20.1957 47.5683 16.3455C47.619 16.343 47.668 16.3379 47.7195 16.3328C49.1006 16.1812 50.4273 15.7156 51.5952 14.9727C52.7631 14.2297 53.7405 13.2297 54.4504 12.0511C54.6053 11.7972 54.7467 11.5355 54.874 11.2671C53.7528 10.447 52.4535 9.89587 51.079 9.65726C49.7044 9.41865 48.2924 9.49916 46.9549 9.89242C46.68 9.97376 46.4059 10.0695 46.1362 10.1763C46.229 7.06079 43.8588 2.37391 40.9525 0.668682C40.5819 0.45982 40.1999 0.271384 39.8082 0.104241L39.5522 0L39.3752 0.222902C39.1467 0.515255 38.9367 0.821215 38.7464 1.13905C37.0325 4.01642 37.505 9.18126 39.108 11.8689C38.8211 11.9019 38.5333 11.9502 38.2516 12.0104C37.0367 12.2697 35.8896 12.7749 34.8828 13.4942C33.8761 14.2134 33.0316 15.1309 32.4029 16.1887C32.2505 16.4447 32.1117 16.7084 31.9871 16.9786C32.2299 17.1532 32.4817 17.3153 32.7414 17.4643C33.9382 18.1599 35.2824 18.5718 36.6681 18.6675C38.0538 18.7633 39.4431 18.5403 40.7265 18.016C40.7755 17.9957 40.8219 17.9779 40.8674 17.9576C41.7018 21.5408 41.3578 25.293 39.8855 28.6704C39.8803 28.6552 39.8777 28.6374 39.8726 28.6221C39.8494 28.7077 39.8185 28.7942 39.7927 28.8831C39.693 29.1002 39.59 29.3179 39.4826 29.5332C39.2231 30.0538 38.9364 30.5608 38.6235 31.052C37.5698 32.3589 36.0629 33.2343 34.3934 33.5095C32.724 33.7846 31.0104 33.44 29.5834 32.542C29.5786 33.8959 29.1618 35.2173 28.3871 36.3349C27.6124 37.4525 26.5153 38.3149 25.2381 38.8103C24.6296 39.0469 23.9895 39.1954 23.3378 39.2511C20.5093 39.2037 17.7337 38.487 15.2444 37.161C16.1348 36.2605 16.8203 35.1829 17.2551 34.0003C17.6899 32.8176 17.864 31.5571 17.7658 30.3028C17.7349 29.9104 17.6765 29.1891 17.5991 28.817C14.4927 29.2018 11.9275 31.9343 10.6346 33.4022H10.6268C8.91125 31.9343 5.75843 29.3154 2.30574 29.5739C1.51004 29.6992 0.734705 29.928 0 30.2545C3.85443 33.1089 7.52521 36.1971 10.9911 39.5011C13.4258 41.8022 15.7624 44.2567 17.9944 46.7696C21.0956 50.2691 26.3928 57.3375 26.3979 57.335C27.7784 58.6022 29.6101 59.2808 31.4948 59.2233C31.6105 59.2064 31.7167 59.1504 31.7953 59.065C31.874 58.9795 31.9202 58.8699 31.9261 58.7546C31.9484 58.5699 31.6254 58.4588 31.4587 58.3851C30.8295 58.162 30.2659 57.7888 29.8183 57.2988C29.3708 56.8087 29.053 56.217 28.8935 55.5763C27.8961 52.4939 37.243 46.9289 50.9049 43.5074C64.5695 40.0885 75.5435 40.5038 76.1774 43.6846C76.3501 44.3222 76.3603 44.9921 76.2071 45.6346C76.0539 46.2771 75.7421 46.8723 75.2994 47.3671C75.1895 47.5112 74.9584 47.7646 75.0744 47.9163C75.1355 48.0151 75.2293 48.09 75.34 48.1284C75.4507 48.1667 75.5715 48.166 75.6817 48.1265C77.3601 47.2832 78.6346 45.8222 79.2298 44.0592C79.2298 44.0592 80.6971 35.2982 81.7048 30.758C82.4307 27.4933 83.2995 24.2726 84.3113 21.0961C85.7485 16.5768 87.4706 12.1505 89.4674 7.84313C88.6849 7.95879 87.9214 8.17653 87.1969 8.49062" fill="#F7760D"/>
<path d="M38.9288 50.3343C46.3071 47.2238 54.0781 45.1127 62.0303 44.0583C62.0303 44.0583 77.5419 45.5644 77.5419 63.5271C77.5419 81.4897 64.5904 91.744 46.9603 91.744C29.3328 91.744 20.0366 84.0781 20.0366 75.9121C20.0366 67.7452 25.9875 66.4443 28.7555 66.4443C31.5208 66.4443 36.525 68.9098 36.525 75.3095C36.525 75.3095 31.5441 74.1026 31.5441 78.3539C31.5441 82.6051 37.4331 85.2528 45.5085 85.2528C53.5812 85.2528 64.9829 81.7626 64.9829 66.212C64.9829 49.6207 57.2005 48.8791 51.79 48.8791V77.3393C51.8346 78.0394 52.1562 78.6941 52.6856 79.1623C53.215 79.6305 53.9096 79.8746 54.6198 79.8421C54.6198 79.8421 51.7745 82.211 44.7335 82.211C37.6925 82.211 35.6865 79.9811 35.6865 79.9811C35.6865 79.9811 39.0189 79.9938 39.0189 77.0936C39.0189 74.1958 38.9287 50.3343 38.9287 50.3343" fill="#61B510"/>
<path d="M234.176 109.811C233.957 109.173 233.677 108.558 233.34 107.973C232.762 106.97 231.963 106.107 231.002 105.45L230.997 105.445C230.879 105.362 230.764 105.278 230.648 105.2L230.625 105.185C230.103 104.824 229.559 104.495 228.996 104.2C224.994 102.097 220.883 102.087 217.584 101.323C217.062 101.203 216.547 101.054 216.043 100.875C215.858 100.804 215.676 100.73 215.494 100.65C214.795 100.342 214.144 99.9395 213.559 99.453C213.042 99.0129 212.672 98.4288 212.497 97.7775C212.407 97.5154 212.376 97.2373 212.405 96.9621C212.434 96.6869 212.523 96.4212 212.667 96.1833C213.101 95.531 213.675 94.9801 214.347 94.5687C215.064 94.1261 215.845 93.794 216.663 93.5839C217.544 93.3575 218.452 93.2511 219.361 93.2678C220.304 93.2811 221.24 93.4155 222.147 93.6678C223.185 93.9227 224.201 94.2594 225.184 94.6747C225.89 94.983 226.555 95.3767 227.163 95.8468C227.459 96.0841 227.742 96.3367 228.012 96.6037C228.296 96.8816 228.591 97.1749 228.904 97.4842C229.214 97.7902 229.563 98.1317 229.945 98.5114C230.328 98.8886 230.802 99.3423 231.369 99.8726V87.5868C231.369 87.5868 230.415 89.9353 226.631 89.9353C225.571 89.9074 224.514 89.8237 223.464 89.6844C222.386 89.5149 221.296 89.3429 220.19 89.1581C218.968 88.9694 217.731 88.8931 216.494 88.9301C214.791 88.9263 213.097 89.1518 211.456 89.6005C209.893 90.0159 208.418 90.7042 207.101 91.6329C205.75 92.5733 204.658 93.8305 203.923 95.2912C203.189 96.7518 202.834 98.37 202.891 99.9997C202.82 101.475 203.166 102.941 203.891 104.233C204.418 105.095 205.07 105.876 205.826 106.551L205.836 106.559C205.858 106.582 205.887 106.602 205.91 106.625C205.995 106.695 206.079 106.766 206.164 106.835C206.297 106.946 206.433 107.052 206.57 107.159C209.324 109.244 213.213 110.254 217.709 111.268C217.797 111.289 217.876 111.304 217.961 111.322L217.995 111.33C218.456 111.43 218.918 111.547 219.382 111.679C220.237 111.912 221.063 112.235 221.848 112.642C222.483 112.961 223.048 113.403 223.507 113.941C223.698 114.16 223.829 114.423 223.888 114.706C223.947 114.989 223.932 115.282 223.846 115.558C223.743 116.033 223.539 116.481 223.246 116.871C222.953 117.261 222.578 117.585 222.147 117.82C221.259 118.278 220.279 118.535 219.277 118.574C218.187 118.629 217.094 118.545 216.025 118.324C215.059 118.136 214.108 117.883 213.177 117.567C211.34 116.9 209.586 116.028 207.949 114.968C206.863 114.234 205.833 113.421 204.869 112.536C203.842 111.585 202.935 110.515 202.168 109.35V124C203.774 123.084 205.574 122.549 207.426 122.439C207.431 122.445 207.436 122.45 207.442 122.454C208.038 122.354 208.64 122.298 209.245 122.287C210.17 122.272 211.095 122.342 212.008 122.497C212.932 122.649 213.848 122.852 214.75 123.104C215.721 123.352 216.708 123.533 217.704 123.648C218.699 123.761 219.7 123.818 220.701 123.818C222.395 123.815 224.084 123.625 225.736 123.251C227.356 122.902 228.898 122.262 230.284 121.363C231.634 120.481 232.762 119.305 233.58 117.927C234.474 116.333 234.901 114.525 234.814 112.706C234.7 111.722 234.487 110.752 234.176 109.811" fill="black"/>
<path d="M155.628 96.6447C155.628 96.1133 155.656 95.5386 155.713 94.9242C155.769 94.3143 155.883 93.7111 156.054 93.1223C156.216 92.5504 156.452 92.0011 156.754 91.4874C157.056 90.9837 157.452 90.542 157.923 90.1864C158.419 89.8094 159.005 89.5645 159.624 89.4753H144.026C144.886 89.5187 145.71 89.8267 146.383 90.3559C146.998 90.8648 147.492 91.5019 147.827 92.2214C148.19 92.9847 148.434 93.7976 148.551 94.6326C148.674 95.4378 148.739 96.2507 148.743 97.065V112.077L134.122 89.4753H116.44C117.295 89.4896 118.12 89.7923 118.777 90.3331C119.375 90.856 119.84 91.5096 120.137 92.2417C120.456 93.0213 120.671 93.8388 120.775 94.6733C120.883 95.4662 120.939 96.265 120.944 97.065C120.944 97.399 120.949 97.8973 120.965 98.5525V114.448C120.957 115.152 120.939 115.857 120.901 116.563C120.873 117.095 120.831 117.64 120.775 118.198C120.721 118.747 120.607 119.289 120.434 119.813C120.266 120.327 120.023 120.815 119.713 121.261C119.387 121.719 118.967 122.105 118.479 122.392C118.358 122.466 118.23 122.529 118.097 122.582C117.928 122.65 117.748 122.713 117.566 122.769C117.381 122.824 117.217 122.88 117.077 122.936C116.996 122.974 116.91 123.002 116.822 123.019H132.08C131.657 122.797 131.296 122.595 130.997 122.412C130.687 122.221 130.389 122.011 130.104 121.784C129.836 121.575 129.587 121.343 129.36 121.091C128.701 120.292 128.262 119.338 128.086 118.322C127.893 117.314 127.793 116.29 127.788 115.263V100.492L142.176 123.019H159.624C159.005 122.929 158.42 122.684 157.923 122.308C157.452 121.953 157.055 121.511 156.754 121.007C156.452 120.494 156.217 119.945 156.054 119.373C155.883 118.783 155.769 118.179 155.713 117.569C155.656 116.953 155.628 116.38 155.628 115.85V96.6447H155.628Z" fill="black"/>
<path d="M109.017 109.682V96.3804C109.042 95.7803 109.108 95.1826 109.214 94.5912C109.345 93.8397 109.588 93.1115 109.935 92.43C110.283 91.7654 110.759 91.1747 111.338 90.6918C112.005 90.1494 112.77 89.7362 113.593 89.4738H93.2742C94.1074 89.6978 94.8779 90.1065 95.5267 90.6689C96.1894 91.325 96.7166 92.1019 97.079 92.9563C97.6016 94.2619 97.841 95.661 97.7817 97.0635V114.669C97.7817 115.229 97.7671 115.902 97.7379 116.689C97.7573 117.8 97.5094 118.9 97.0146 119.898C96.6376 120.627 96.126 121.281 95.506 121.826C95.4038 121.912 95.2852 121.993 95.1701 122.077C90.1882 120.075 84.9994 115.138 81.1567 109.216C78.8939 105.731 76.339 101.113 74.2102 97.0813C76.211 94.6116 78.125 92.3139 79.6688 90.562C82.6946 87.6766 86.4884 85.6977 90.6092 84.8556H74.023C74.023 84.8556 75.5444 87.0066 73.3538 89.6213L62.3618 102.733V91.9698C62.2441 92.0198 62.1255 92.0732 62.0078 92.1215C61.5336 92.3114 61.0431 92.4935 60.5457 92.6631C59.0279 93.182 57.4759 93.598 55.9006 93.9081C55.3619 94.0166 54.8001 94.1183 54.2357 94.2065C53.0537 94.4197 51.8606 94.5677 50.6619 94.6497V114.29L50.5906 115.798C50.5546 116.201 50.5056 116.606 50.4445 117.025C50.3072 117.951 50.0448 118.854 49.6645 119.71C49.3033 120.528 48.7738 121.264 48.1096 121.869C47.3823 122.506 46.4748 122.908 45.5091 123.021H66.7869C65.9148 122.849 65.1268 122.393 64.5498 121.725C63.9411 121.012 63.4786 120.19 63.1882 119.303C62.8474 118.291 62.6184 117.246 62.5052 116.186C62.3772 115.052 62.3048 113.94 62.2879 112.852C62.2853 112.648 62.2827 112.45 62.2827 112.25C63.1289 111.15 64.4399 109.446 66.0043 107.436C66.8436 108.832 67.7388 110.282 68.6623 111.724C73.0608 118.592 76.5701 123.034 82.1473 123.034C87.7262 123.034 113.506 123.021 113.506 123.021C112.674 122.693 111.911 122.217 111.254 121.617C110.602 120.945 110.077 120.164 109.704 119.31C109.263 118.284 109.029 117.181 109.017 116.066V109.682L109.017 109.682Z" fill="black"/>
<path d="M183.26 106.373C183.798 106.89 184.181 107.544 184.368 108.261C184.567 109.049 184.649 109.86 184.612 110.67C184.583 111.551 184.583 112.438 184.612 113.332C184.612 113.781 184.626 114.304 184.655 114.907C184.687 115.489 184.606 116.073 184.414 116.625C184.204 117.191 183.816 117.676 183.306 118.009C182.546 118.439 181.673 118.637 180.799 118.576C179.686 118.627 178.585 118.334 177.65 117.736C176.854 117.181 176.201 116.449 175.743 115.6C175.283 114.738 174.952 113.815 174.762 112.859V112.88C173.735 108.558 173.7 104.064 174.658 99.7275C174.867 98.7689 175.226 97.8484 175.723 96.9993C176.204 96.1831 176.862 95.4816 177.65 94.9449C178.534 94.3735 179.565 94.0611 180.622 94.044C181.157 94.0196 181.692 94.0551 182.218 94.1499C182.78 94.2466 183.311 94.3525 183.814 94.4635C186.339 94.999 188.748 95.9714 190.929 97.3358C193.384 98.9233 195.372 100.53 196.229 102.851V87.6411C195.996 88.3424 195.615 88.9872 195.112 89.5337C194.609 90.0801 193.995 90.5159 193.31 90.8126C192.889 90.9536 192.456 91.0602 192.017 91.1313C191.916 91.144 191.812 91.1541 191.704 91.1618C191.64 91.1668 191.57 91.1668 191.504 91.1694C190.665 91.1641 189.828 91.0956 189 90.9643C188.096 90.8336 187.206 90.6225 186.34 90.3337C185.453 90.0405 184.611 89.7958 183.814 89.5998C183.012 89.4034 182.198 89.2633 181.376 89.1802C180.536 89.0965 179.692 89.0552 178.847 89.0565C177.131 89.0495 175.42 89.2386 173.748 89.6201C172.154 89.9864 170.617 90.5655 169.182 91.3414C167.768 92.1066 166.482 93.0823 165.37 94.234C164.475 95.1659 163.707 96.2086 163.085 97.336L163.064 97.3716C161.129 101.864 160.585 106.822 161.502 111.619C161.736 112.584 162.049 113.529 162.438 114.443C162.636 114.907 162.852 115.355 163.087 115.788C163.971 117.449 165.176 118.924 166.635 120.128C168.114 121.327 169.816 122.231 171.645 122.79C173.719 123.413 175.884 123.689 178.05 123.607C179.031 123.574 180.004 123.434 180.954 123.19C181.943 122.936 182.941 122.656 183.947 122.349C184.953 122.041 185.963 121.75 186.985 121.469C187.96 121.196 188.965 121.034 189.978 120.985C190.95 120.944 191.922 121.058 192.858 121.322C193.866 121.621 194.791 122.145 195.562 122.853V112.705C195.565 111.961 195.625 111.218 195.741 110.483C195.852 109.726 196.06 108.986 196.36 108.281C196.653 107.601 197.075 106.982 197.604 106.457C198.161 105.91 198.846 105.506 199.599 105.282H180.622C181.593 105.373 182.513 105.754 183.26 106.373" fill="black"/>
</svg>
