<svg width="135" height="104" viewBox="0 0 135 104" fill="none" xmlns="http://www.w3.org/2000/svg">
<path d="M1.6125 79.4188L1.61129 79.4159L42.0723 18.6369L54.6861 37.2997L79.9002 0L132.968 79.4069L132.958 79.4193H126.53L79.8821 9.61325L54.6861 46.8867L42.0971 28.2631L8.04136 79.4202H1.6125V79.4188ZM11.3563 99.6594H11.3032L10.0567 89.117H3.92677L0 103.745H3.52938L6.92529 91.6317H6.97844L8.46411 103.745H12.0201L20.4051 91.6317H20.4582L16.9554 103.745H20.8828L24.8367 89.117H18.6537L11.3563 99.6594ZM35.1332 98.3811C34.682 99.9947 33.7803 101.818 31.3121 101.818C30.1706 101.818 29.3753 101.21 29.3753 100.308C29.3753 99.5115 29.5866 98.7784 29.7739 98.0453L31.0995 92.9524H27.5435L26.1104 98.1917C25.9244 98.8623 25.6593 99.7214 25.6593 100.539C25.6593 102.675 27.4366 103.996 30.1163 103.996C31.6563 103.996 33.0091 103.409 33.9911 102.697H34.0443L33.8057 103.744H37.2819C37.3363 103.409 37.468 102.841 37.6274 102.194L40.15 92.951H36.5923L35.1332 98.3811ZM42.3755 96.1378C42.3755 98.8423 46.9926 99.0093 46.9926 100.749C46.9926 101.629 45.7461 101.944 44.5527 101.944C43.1721 101.944 42.1635 101.545 41.1556 101.105L40.3862 103.347C41.6864 103.829 43.1196 103.997 44.5533 103.997C47.6031 103.997 50.7074 103.159 50.7074 100.35C50.7074 97.7104 46.0909 97.2067 46.0909 95.8454C46.0909 94.9854 47.4183 94.7555 48.4795 94.7555C49.488 94.7555 50.4706 94.9863 51.3989 95.2601L52.1683 93.1432C50.9218 92.8919 49.5955 92.7025 48.2947 92.7025C45.4821 92.7025 42.3773 93.604 42.3773 96.1392L42.3755 96.1378ZM65.7519 96.0328C65.7519 97.4781 64.3991 101.713 64.0802 103.746H61.0823L61.4537 102.089H61.4006C60.1806 103.306 58.9589 103.997 56.9961 103.997C54.5278 103.997 52.7764 102.908 52.7764 100.916C52.7764 97.3527 57.8193 97.0808 61.162 97.0808H62.4091C62.5154 96.7874 62.5154 96.4731 62.5154 96.1578C62.5154 95.0684 61.0298 94.7545 59.782 94.7545C58.2167 94.7545 56.7044 95.0684 55.2978 95.594L55.8015 93.3512C57.3144 92.9314 58.8532 92.7015 60.4458 92.7015C63.1786 92.7015 65.7519 93.4976 65.7519 96.0328ZM62.0106 98.7579H60.764C59.0392 98.7579 56.1742 98.9887 56.1742 100.812C56.1742 101.567 57.0758 101.944 57.9775 101.944C60.6312 101.944 61.4537 100.497 62.0106 98.7579ZM71.749 88.028L67.5305 103.746H71.0858L75.3049 88.028H71.749ZM87.883 96.0333C87.883 97.4786 86.529 101.713 86.2101 103.746H83.2116L83.583 102.09H83.5299C82.3099 103.306 81.09 103.998 79.1254 103.998C76.6577 103.998 74.9069 102.908 74.9069 100.916C74.9069 97.3531 79.9498 97.0813 83.2925 97.0813H84.5384C84.6453 96.7879 84.6453 96.4736 84.6453 96.1583C84.6453 95.0688 83.1585 94.755 81.9125 94.755C80.3471 94.755 78.8349 95.0688 77.4277 95.5945L77.9326 93.3517C79.4443 92.9319 80.9837 92.702 82.5757 92.702C85.3091 92.702 87.883 93.4981 87.883 96.0333ZM84.1411 98.7584H82.8945C81.1691 98.7584 78.3034 98.9892 78.3034 100.813C78.3034 101.567 79.2057 101.945 80.1068 101.945C82.7611 101.945 83.583 100.497 84.1411 98.7584ZM92.3141 92.9534C92.3141 96.3276 99.1325 96.5795 99.1325 99.6184C99.1325 101.882 96.4788 102.741 93.987 102.741C92.6601 102.741 91.1201 102.406 90.0324 101.819L89.4738 103.201C90.2969 103.557 91.7301 103.997 94.1446 103.997C97.5145 103.997 100.963 102.405 100.963 99.429C100.963 95.656 94.1446 95.3841 94.1446 92.8485C94.1446 90.8785 96.5313 90.1234 98.575 90.1234C99.8753 90.1234 101.176 90.3743 102.316 90.8365L102.874 89.5153C101.574 89.0755 100.142 88.8665 98.575 88.8665C95.3126 88.8675 92.3141 90.1034 92.3141 92.9534ZM116.328 97.3956C116.328 100.96 113.489 103.998 108.818 103.998C105.474 103.998 103.405 102.006 103.405 99.3455C103.405 95.7624 106.351 92.806 110.941 92.806C114.391 92.806 116.328 94.6295 116.328 97.3956ZM114.497 97.4175C114.497 95.4046 113.356 93.9379 110.73 93.9379C106.988 93.9379 105.236 96.8299 105.236 99.554C105.236 101.398 106.67 102.864 109.031 102.866C112.534 102.867 114.496 99.9322 114.496 97.4185L114.497 97.4175ZM131.178 94.1898H134.655L135 93.0583H131.471L132.293 90.1458L130.382 90.6705L129.744 93.0602H123.73L123.944 92.2637C124.396 90.5656 124.874 88.9104 126.863 88.9104C127.658 88.9104 128.083 89.0788 128.215 89.1203L128.613 88.0089C128.002 87.82 127.393 87.78 126.756 87.78C123.597 87.78 122.776 90.1477 122.271 91.9918L121.981 93.0602H119.088L118.744 94.1917H121.663L119.061 103.748H120.811L123.412 94.1912H129.428L128.127 98.9277C127.994 99.3894 127.517 101.086 127.517 102.008C127.517 103.161 128.579 104 130.463 104C131.154 104 131.657 103.895 132.162 103.707L132.32 102.575C131.885 102.771 131.391 102.872 130.889 102.868C129.906 102.868 129.349 102.406 129.349 101.568C129.349 100.876 129.562 100.185 129.746 99.4715L131.18 94.1888L131.178 94.1898ZM16.7132 84.2684H101.615C108.252 79.2814 111.878 73.9415 111.878 69.9863C111.878 55.2631 50.9236 56.1441 50.9236 52.6258C50.9236 50.7436 64.3369 48.4617 83.208 47.1738V46.8876C57.931 47.3994 30.3971 49.7734 30.3971 53.2855C30.3971 57.8999 70.8262 58.9998 70.8262 65.1516C70.8262 68.667 54.0332 74.6007 16.7138 84.2693L16.7132 84.2684Z" fill="#38549A"/>
</svg>
